# xmcd
#
# Track frame offsets: 
#        150
#        12206
#        21816
#        33081
#        42061
#        52802
#        65066
#        76441
#        86503
#        96211
#        107688
#        117054
#        133416
#        145522
#        158472
#        168645
#        181254
#        211623
#        222147
#        232855
#        243984
#        254330
#        262998
#        274745
#        284899
#        297168
#        309738
#        320412
#
# Disc length: 4437 seconds
#
# Revision: 1
# Processed by: cddbd v1.5.2PL0 Copyright (c) Steve Scherf et al.
# Submitted via: ExactAudioCopyFreeDBPlugin 1.0
#
DISCID=8011531c
DTITLE=Various Artist - Gumbo Ya Ya:  The Cosimo Matassa Story, Volum
DTITLE=e 2
DYEAR=2013
DGENRE=Rhythm and Blues
TTITLE0=Aaron Neville - Even Though (Reality)
TTITLE1=Fats Domino - My Girl Josephine
TTITLE2=Irma Thomas - Cry On
TTITLE3=Chris Kenner - I Like it Like That
TTITLE4=Clarence "Frogman" Henry - But I Do
TTITLE5=Ernie K-Doe - Te-Ta-Te-Ta-Ta
TTITLE6=Clarence "Frogman" Henry - You Always Hurt the One You Love
TTITLE7=Clarence "Frogman" Henry - Lonely Street
TTITLE8=Alvin "Red" Taylor and The Gyros - Peanut Vendor
TTITLE9=Alvin "Red" Taylor and The Gyros - Junk Village
TTITLE10=Fats Domino - Let the Four Winds Blow
TTITLE11=Irma Thomas - It's Too Soon to Know
TTITLE12=Aaron Neville - Let's Live
TTITLE13=Chris Kenner - Something You Got
TTITLE14=Ernie K. Doe - I Cried My Last Tear
TTITLE15=Ernie K. Doe - A Certain Girl
TTITLE16=Diamond Joe - Moanin' and Screamin' (Pts. 1 and 2)
TTITLE17=Willie Harper - New Kind of Love
TTITLE18=Joe Barry - I'm a Fool to Care
TTITLE19=Lee Dorsey - Ya Ya
TTITLE20=The Showmen - It Will Stand
TTITLE21=The Showmen - Country Fool
TTITLE22=Joe August - Everything Happens at Night
TTITLE23=Lee Dorsey - Do-Re-Mi
TTITLE24=The Del-Royals - Always Naggin'
TTITLE25=Jessie Hill - Oogsey Moo
TTITLE26=Barbara George - I Know (You Don't Love Me No More)
TTITLE27=Barbara George - Something You Got
EXTD=Proper Box 174
EXTT0=
EXTT1=
EXTT2=
EXTT3=
EXTT4=
EXTT5=
EXTT6=
EXTT7=
EXTT8=
EXTT9=
EXTT10=
EXTT11=
EXTT12=
EXTT13=
EXTT14=
EXTT15=
EXTT16=
EXTT17=
EXTT18=
EXTT19=
EXTT20=
EXTT21=
EXTT22=
EXTT23=
EXTT24=
EXTT25=
EXTT26=
EXTT27=
PLAYORDER=
